<svg
              id="logo"
              xmlns="http://www.w3.org/2000/svg"
              width="63"
              height="53"
              viewBox="0 0 63 53"
              fill="none"
            >
              <path
                d="M1 11.45L16.2 1V20.475L1 31.4V11.45Z"
                fill="#687C57"
                stroke="#324424"
                stroke-width="0.285"
              />
              <path
                d="M31.4002 31.4L46.6002 20.475L61.8002 31.4L46.6003 42.325L31.4002 31.4Z"
                fill="#D9D9D9"
              />
              <path
                d="M1 31.4L16.2 20.475L31.4002 31.4L16.2002 42.325L1 31.4Z"
                fill="#D9D9D9"
              />
              <path
                d="M16.2002 42.325L31.4002 31.4L46.6003 42.325L31.4002 52.775L16.2002 42.325Z"
                fill="#D9D9D9"
              />
              <path
                d="M31.4002 31.4L46.6002 20.475L61.8002 31.4L46.6003 42.325M31.4002 31.4L46.6003 42.325M31.4002 31.4L16.2 20.475L1 31.4L16.2002 42.325M31.4002 31.4L16.2002 42.325M46.6003 42.325L31.4002 52.775L16.2002 42.325"
                stroke="#324424"
                stroke-width="0.285"
              />
              <path
                d="M31.3999 11.45L46.5999 1V20.475L31.3999 31.4V11.45Z"
                fill="#687C57"
                stroke="#324424"
                stroke-width="0.285"
              />
              <path
                d="M31.3999 11.45L16.1999 1V20.475L31.3999 31.4V11.45Z"
                fill="#8FC5E7"
                stroke="#324424"
                stroke-width="0.285"
              />
              <path
                d="M61.7998 11.45L46.5998 1V20.475L61.7998 31.4V11.45Z"
                fill="#8FC5E7"
                stroke="#324424"
                stroke-width="0.285"
              />
            </svg>